<?xml version="1.0" standalone="no"?>
<svg xmlns:xlink="http://www.w3.org/1999/xlink" id="wave" style="transform:rotate(0deg); transition: 0.3s" viewBox="0 0 1440 270" version="1.1" xmlns="http://www.w3.org/2000/svg"><defs><linearGradient id="sw-gradient-0" x1="0" x2="0" y1="1" y2="0"><stop stop-color="rgba(184, 157, 79, 1)" offset="0%"/><stop stop-color="rgba(0, 0, 0, 1)" offset="100%"/></linearGradient></defs><path style="transform:translate(0, 0px); opacity:1" fill="url(#sw-gradient-0)" d="M0,27L26.7,27C53.3,27,107,27,160,45C213.3,63,267,99,320,126C373.3,153,427,171,480,166.5C533.3,162,587,135,640,130.5C693.3,126,747,144,800,148.5C853.3,153,907,144,960,135C1013.3,126,1067,117,1120,94.5C1173.3,72,1227,36,1280,31.5C1333.3,27,1387,54,1440,81C1493.3,108,1547,135,1600,144C1653.3,153,1707,144,1760,157.5C1813.3,171,1867,207,1920,220.5C1973.3,234,2027,225,2080,193.5C2133.3,162,2187,108,2240,108C2293.3,108,2347,162,2400,184.5C2453.3,207,2507,198,2560,171C2613.3,144,2667,99,2720,67.5C2773.3,36,2827,18,2880,36C2933.3,54,2987,108,3040,121.5C3093.3,135,3147,108,3200,99C3253.3,90,3307,99,3360,108C3413.3,117,3467,126,3520,139.5C3573.3,153,3627,171,3680,189C3733.3,207,3787,225,3813,234L3840,243L3840,270L3813.3,270C3786.7,270,3733,270,3680,270C3626.7,270,3573,270,3520,270C3466.7,270,3413,270,3360,270C3306.7,270,3253,270,3200,270C3146.7,270,3093,270,3040,270C2986.7,270,2933,270,2880,270C2826.7,270,2773,270,2720,270C2666.7,270,2613,270,2560,270C2506.7,270,2453,270,2400,270C2346.7,270,2293,270,2240,270C2186.7,270,2133,270,2080,270C2026.7,270,1973,270,1920,270C1866.7,270,1813,270,1760,270C1706.7,270,1653,270,1600,270C1546.7,270,1493,270,1440,270C1386.7,270,1333,270,1280,270C1226.7,270,1173,270,1120,270C1066.7,270,1013,270,960,270C906.7,270,853,270,800,270C746.7,270,693,270,640,270C586.7,270,533,270,480,270C426.7,270,373,270,320,270C266.7,270,213,270,160,270C106.7,270,53,270,27,270L0,270Z"/></svg>